This is not my rip. It is a very good copy though, especially considering it has never been released on DVD. Check the sample. This is a rare cartoon to have.
 
http://www.imdb.com/title/tt0076591/
 
http://imageshack.us/a/img38/1885/vlcsnap2013012813h59m18.png 
http://imageshack.us/a/img543/5880/vlcsnap2013012813h59m38.png 
http://imageshack.us/a/img38/369/vlcsnap2013012814h00m05.png 
http://imageshack.us/a/img22/388/vlcsnap2013012813h59m55.png 
http://imageshack.us/a/img22/8756/vlcsnap2013012814h00m25.png


Video
ID                                       : 0
Format                                   : MPEG-4 Visual
Format settings, BVOP                    : 1
Format settings, QPel                    : No
Format settings, GMC                     : No warppoints
Format settings, Matrix                  : Default (H.263)
Muxing mode                              : Packed bitstream
Codec ID                                 : DX50
Codec ID/Hint                            : DivX 5
Duration                                 : 1h 12mn
Bit rate                                 : 1 460 Kbps
Width                                    : 640 pixels
Height                                   : 480 pixels
Display aspect ratio                     : 4:3
Frame rate                               : 25.000 fps
Color space                              : YUV
Chroma subsampling                       : 4:2:0
Bit depth                                : 8 bits
Scan type                                : Progressive
Compression mode                         : Lossy
Bits/(Pixel*Frame)                       : 0.190
Stream size                              : 754 MiB (95%)
Title                                    : Video
Writing library                          : DivX 5.2.1 Alpha (UTC 2004-09-08)

Audio
ID                                       : 1
Format                                   : MPEG Audio
Format version                           : Version 1
Format profile                           : Layer 3
Codec ID                                 : 55
Codec ID/Hint                            : MP3
Duration                                 : 1h 12mn
Bit rate mode                            : Constant
Bit rate                                 : 64.0 Kbps
Channel(s)                               : 1 channel
Sampling rate                            : 44.1 KHz
Compression mode                         : Lossy
Stream size                              : 33.1 MiB (4%)
Alignment                                : Split accross interleaves
Interleave, duration                     : 40 ms (1.00 video frame)
Interleave, preload duration             : 500 ms
Title                                    : Audio

